<svg width="176" height="254" viewBox="0 0 176 254" fill="none" xmlns="http://www.w3.org/2000/svg">
<rect x="1.46118" y="0.652344" width="173.892" height="252.65" rx="30" transform="rotate(0.194113 1.46118 0.652344)" fill="#FFD77C"/>
<g clip-path="url(#clip0_30_39)">
<path d="M51.198 74.1883L55.1788 74.1883L55.1788 89.391L51.198 89.391L51.198 83.315L46.4887 83.315L46.4887 89.391L42.5079 89.391L42.5079 74.1883L46.4887 74.1883L46.4887 79.6869L51.198 79.6869L51.198 74.1883ZM65.6898 86.1772L63.7559 86.1772L63.7559 77.4021L65.514 77.4021L65.514 74.1883L58.0169 74.1883L58.0169 77.4021L59.7751 77.4021L59.7751 86.1772L57.8411 86.1772L57.8411 89.391L65.6898 89.391L65.6898 86.1772ZM81.9398 85.1729C82.4422 83.6916 82.4673 82.2353 82.3542 80.7665L75.1837 80.7665L75.1837 84.1184L78.4236 84.1184C77.7078 85.5747 76.7032 85.9638 75.146 85.9638C72.8228 85.9638 71.3409 84.3318 71.3409 81.7959C71.3409 79.4986 72.6846 77.5653 75.146 77.5653C76.6278 77.5653 77.5822 78.0172 78.2478 79.235L82.1157 79.235C81.3119 75.5441 78.1599 74 75.146 74C71.2781 74 67.3224 76.5987 67.3224 81.8211C67.3224 87.0435 71.2781 89.5919 75.146 89.5919C77.9715 89.5919 80.8347 88.3742 81.9398 85.1855M89.9644 77.4147L91.7225 77.4147L91.7225 74.1883L84.2254 74.1883L84.2254 77.4021L85.9835 77.4021L85.9835 86.1772L84.0496 86.1772L84.0496 89.391L91.8983 89.391L91.8983 86.1772L89.9644 86.1772L89.9644 77.4021L89.9644 77.4147ZM104.268 85.7755L98.554 85.7755L98.554 83.3024L103.64 83.3024L103.64 79.825L98.554 79.825L98.554 77.6532L104.067 77.6532L104.067 74.1883L94.5731 74.1883L94.5731 89.391L104.268 89.391L104.268 85.763L104.268 85.7755ZM116.185 81.6327L108.249 74.1255L107.006 74.1255L107.006 89.391L110.986 89.391L110.986 81.5449L118.986 89.4287L120.154 89.4287L120.154 74.1883L116.173 74.1883L116.173 81.6202L116.185 81.6327ZM133.113 85.7755L127.4 85.7755L127.4 83.3024L132.486 83.3024L132.486 79.825L127.4 79.825L127.4 77.6532L132.913 77.6532L132.913 74.1883L123.419 74.1883L123.419 89.391L133.113 89.391L133.113 85.763L133.113 85.7755ZM23.1812 105.021L28.2672 105.021L28.2672 101.543L23.1812 101.543L23.1812 99.3714L28.6941 99.3714L28.6941 95.919L19.2003 95.919L19.2003 111.122L28.8951 111.122L28.8951 107.494L23.1812 107.494L23.1812 105.021ZM43.8265 107.644C41.5032 107.644 40.0214 105.711 40.0214 103.514C40.0214 100.991 41.5158 99.3463 43.8265 99.3463C45.459 99.3463 46.6143 99.9488 47.1543 101.518L50.9719 101.518C50.3817 97.4632 46.9534 95.7684 43.8265 95.7684C39.9335 95.7684 36.0531 98.3043 36.0531 103.539C36.0531 108.774 39.946 111.272 43.8265 111.272C47.0664 111.272 50.4319 109.553 51.0222 105.234L47.2045 105.234C46.7901 106.891 45.4841 107.644 43.839 107.644M68.1638 103.514C68.1638 108.159 64.9489 111.398 60.3402 111.398C56.3216 111.398 52.5668 108.787 52.5668 103.514C52.5668 98.2415 56.4598 95.6052 60.4155 95.6052C64.3713 95.6052 68.1763 98.2541 68.1763 103.514M64.1955 103.514C64.1955 100.803 62.2992 99.3839 60.4155 99.3839C58.5318 99.3839 56.5477 100.727 56.5477 103.514C56.5477 106.301 58.4188 107.644 60.3653 107.644C62.3118 107.644 64.1955 106.226 64.1955 103.514ZM79.805 103.338L71.8809 95.8437L70.6377 95.8437L70.6377 111.109L74.6186 111.109L74.6186 103.263L82.618 111.147L83.7859 111.147L83.7859 95.9065L79.805 95.9065L79.805 103.338ZM87.0509 111.109L91.0318 111.109L91.0318 106.201L95.9043 106.201L95.9043 102.723L91.0318 102.723L91.0318 99.3588L96.5447 99.3588L96.5447 95.9065L87.0509 95.9065L87.0509 111.109ZM113.711 103.514C113.711 108.159 110.497 111.398 105.888 111.398C101.869 111.398 98.1145 108.787 98.1145 103.514C98.1145 98.2415 102.007 95.6052 105.963 95.6052C109.919 95.6052 113.711 98.2541 113.711 103.514ZM109.731 103.514C109.731 100.803 107.847 99.3839 105.951 99.3839C104.054 99.3839 102.083 100.727 102.083 103.514C102.083 106.301 103.954 107.644 105.913 107.644C107.872 107.644 109.731 106.226 109.731 103.514ZM126.094 105.711L129.07 110.532L129.07 111.097L124.85 111.097L122.238 106.339L120.154 106.339L120.154 111.097L116.173 111.097L116.173 95.8939C118.433 95.8939 120.631 95.8688 122.866 95.8939C126.533 95.8939 128.341 98.6056 128.341 101.28C128.316 103.012 127.588 104.694 126.081 105.711M124.499 101.192C124.499 100.238 123.971 99.3463 122.841 99.3463L120.078 99.3463L120.078 103.1L122.841 103.1C123.946 103.1 124.499 102.146 124.499 101.192ZM129.874 99.3839L133.603 99.3839L133.603 111.109L137.446 111.109L137.446 99.3839L141.163 99.3839L141.163 95.9065L129.861 95.9065L129.861 99.3839L129.874 99.3839ZM157.777 103.514C157.777 108.159 154.562 111.398 149.954 111.398C145.935 111.398 142.18 108.787 142.18 103.514C142.18 98.2415 146.073 95.6052 150.029 95.6052C153.985 95.6052 157.79 98.2541 157.79 103.514M153.809 103.514C153.809 100.803 151.913 99.3839 150.029 99.3839C148.145 99.3839 146.161 100.727 146.161 103.514C146.161 106.301 148.032 107.644 149.979 107.644C151.925 107.644 153.809 106.226 153.809 103.514Z" fill="#00AEEF"/>
<path d="M20.6947 119.633C18.3966 119.633 16.4753 121.152 16.3873 123.801C16.2994 126.663 18.271 128.421 21.0589 128.421C22.0887 128.421 23.1435 128.182 24.1482 127.705L23.9347 126.676C22.9552 127.078 22.051 127.291 21.0966 127.291C19.2003 127.291 17.6683 126.111 17.7562 124.178L24.4244 124.178C24.8891 121.403 23.5579 119.671 20.6947 119.646M17.8064 123.123C18.0324 121.604 19.1627 120.725 20.6947 120.725C22.2268 120.725 23.357 121.541 23.2691 123.123L17.7938 123.123L17.8064 123.123ZM39.2805 123.224L39.2805 128.22L37.8866 128.22L37.8866 123.224C37.8866 121.88 37.3968 120.788 35.9903 120.788C34.5838 120.788 33.5164 121.83 33.5164 123.337L33.5164 128.233L32.1601 128.233L32.1601 123.299C32.1601 121.893 31.6704 120.788 30.2137 120.788C28.7569 120.788 27.8653 121.818 27.8653 123.349L27.8653 128.22L26.5091 128.22L26.5091 122.144C26.5091 121.027 26.4212 120.7 25.5295 120.788L25.5295 119.796C26.6974 119.608 27.7397 119.495 27.7397 121.152C28.3425 120.035 29.3723 119.658 30.5778 119.658C31.9718 119.658 32.8383 120.286 33.1773 121.466C33.7173 120.223 34.9857 119.658 36.3796 119.658C38.6275 119.658 39.2931 121.29 39.2931 123.224M45.1451 123.989C45.1827 126.726 46.9911 128.346 49.1385 128.346C49.9924 128.346 50.9217 128.082 51.7882 127.53L51.7882 132.601L53.1696 132.601L53.1696 120.336C52.0896 119.897 50.884 119.621 49.7413 119.621C47.2799 119.621 45.1074 120.801 45.1576 123.989M51.8259 121.165L51.8259 126.287C51.0598 126.864 50.2185 127.14 49.4399 127.153C47.8952 127.166 46.5641 126.086 46.5264 123.989C46.5264 121.654 48.0083 120.7 49.7664 120.738C50.432 120.751 51.1478 120.914 51.8259 121.177M63.7057 127.304L63.7057 128.245C62.4122 128.471 61.3699 128.383 61.4578 126.927C60.8174 128.095 59.7374 128.371 58.4565 128.371C56.2086 128.371 55.3044 126.801 55.3044 124.73L55.3044 119.834L56.6858 119.834L56.6858 124.73C56.6733 126.262 57.4644 127.253 58.8583 127.253C60.3276 127.253 61.3574 126.274 61.3574 124.705L61.3574 119.834L62.7136 119.834L62.7136 125.985C62.7136 127.216 62.8392 127.392 63.7057 127.304ZM71.994 126.061L71.994 122.558C72.0442 120.361 70.2233 119.633 68.3145 119.633C67.1968 119.633 66.0792 119.872 65.2629 120.299L65.4889 121.341C66.2047 120.926 67.1466 120.725 68.101 120.725C69.2563 120.725 70.7507 121.115 70.7507 122.521L70.7507 123.55C69.9219 123.086 68.8168 122.86 67.8624 122.86C66.1168 122.86 64.5471 123.851 64.6099 125.772C64.6601 127.467 66.0792 128.371 67.6238 128.371C68.8921 128.371 70.3237 127.881 70.9391 126.714C70.9391 128.245 71.6047 128.509 72.9986 128.283L72.9986 127.392C71.9563 127.53 72.0065 126.99 72.0065 126.073M70.7507 125.395C70.4744 126.651 68.98 127.203 67.8749 127.203C66.9331 127.203 66.0164 126.789 65.9536 125.722C65.9033 124.517 66.9833 123.914 68.101 123.914C68.9549 123.914 69.9847 124.153 70.7507 124.592L70.7507 125.395ZM77.8208 127.191L77.8711 128.27C75.3093 128.685 74.3423 127.806 74.3423 125.207L74.3423 115.478L75.7237 115.478L75.7237 125.207C75.7237 126.839 76.0753 127.417 77.8334 127.191M78.3608 124.002C78.3985 126.739 80.2069 128.358 82.3543 128.358C83.2082 128.358 84.1249 128.095 85.004 127.542L85.004 132.614L86.3854 132.614L86.3854 120.349C85.3054 119.909 84.0998 119.633 82.957 119.633C80.4957 119.633 78.3232 120.813 78.3734 124.002M85.0417 121.177L85.0417 126.299C84.2756 126.877 83.4342 127.153 82.6557 127.166C81.111 127.178 79.7799 126.098 79.7422 124.002C79.7422 121.667 81.224 120.713 82.9822 120.751C83.6477 120.763 84.3635 120.926 85.0417 121.19M96.9215 127.316L96.9215 128.258C95.628 128.484 94.5857 128.396 94.6736 126.94C94.0332 128.107 92.9532 128.383 91.6723 128.383C89.4244 128.383 88.5202 126.814 88.5202 124.743L88.5202 119.847L89.9016 119.847L89.9016 124.743C89.889 126.274 90.6802 127.266 92.0741 127.266C93.5434 127.266 94.5732 126.287 94.5732 124.718L94.5732 119.847L95.9294 119.847L95.9294 125.998C95.9294 127.228 96.055 127.404 96.9215 127.316ZM102.271 119.658C99.9731 119.658 98.0517 121.177 97.9638 123.826C97.8759 126.689 99.8475 128.446 102.635 128.446C103.665 128.446 104.72 128.208 105.725 127.73L105.511 126.701C104.532 127.103 103.627 127.316 102.673 127.316C100.777 127.316 99.2447 126.136 99.3326 124.203L106.001 124.203C106.478 121.428 105.134 119.696 102.271 119.671M99.3828 123.148C99.6089 121.629 100.739 120.751 102.271 120.751C103.803 120.751 104.933 121.567 104.846 123.148L99.3703 123.148L99.3828 123.148ZM111.878 119.583C112.606 119.583 113.272 119.796 113.85 120.211L113.523 121.366C112.983 121.014 112.393 120.813 111.752 120.813C110.547 120.813 109.429 121.717 109.429 123.048L109.429 128.27L108.086 128.27L108.086 121.843C108.086 121.077 108.073 120.612 107.081 120.688L107.081 119.784C108.374 119.558 109.291 119.696 109.341 120.989C109.806 119.96 110.773 119.596 111.891 119.596M122.113 127.228L122.163 128.308C119.601 128.722 118.634 127.843 118.634 125.245L118.634 115.516L120.016 115.516L120.016 125.245C120.016 126.877 120.367 127.454 122.125 127.228M131.468 127.354L131.468 128.295C130.175 128.521 129.133 128.433 129.221 126.977C128.58 128.145 127.5 128.421 126.219 128.421C123.971 128.421 123.067 126.852 123.067 124.78L123.067 119.884L124.449 119.884L124.449 124.78C124.436 126.312 125.227 127.304 126.621 127.304C128.09 127.304 129.12 126.324 129.12 124.755L129.12 119.884L130.476 119.884L130.476 126.036C130.476 127.266 130.602 127.442 131.468 127.354ZM132.536 124.115C132.536 126.977 134.319 128.597 136.492 128.521C137.346 128.509 138.262 128.22 139.179 127.655L139.179 128.973C139.179 131.007 137.973 131.76 136.529 131.773C135.487 131.785 134.319 131.421 133.365 130.907L133.139 131.986C134.219 132.589 135.437 132.928 136.554 132.928C138.702 132.928 140.51 131.748 140.51 128.873L140.51 120.525C139.468 120.06 138.35 119.759 137.17 119.759C134.57 119.759 132.561 121.165 132.561 124.115M139.179 126.463C138.375 127.053 137.521 127.354 136.743 127.354C135.186 127.366 133.917 126.262 133.917 124.09C133.917 121.918 135.399 120.901 137.145 120.901C137.823 120.901 138.501 121.039 139.179 121.303L139.179 126.463ZM149.477 126.111L149.477 122.609C149.527 120.412 147.706 119.683 145.797 119.683C144.679 119.683 143.562 119.922 142.745 120.349L142.971 121.391C143.687 120.976 144.629 120.776 145.584 120.776C146.739 120.776 148.233 121.165 148.233 122.571L148.233 123.6C147.392 123.136 146.299 122.91 145.345 122.91C143.599 122.91 142.03 123.902 142.092 125.822C142.143 127.517 143.549 128.421 145.106 128.421C146.375 128.421 147.806 127.931 148.422 126.764C148.422 128.295 149.087 128.559 150.481 128.333L150.481 127.442C149.439 127.58 149.489 127.04 149.489 126.124M148.233 125.446C147.957 126.701 146.463 127.253 145.357 127.253C144.416 127.253 143.486 126.839 143.436 125.772C143.386 124.567 144.466 123.964 145.584 123.964C146.437 123.964 147.467 124.203 148.233 124.642L148.233 125.446ZM157.941 120.236L157.614 121.391C157.074 121.039 156.484 120.838 155.843 120.838C154.638 120.838 153.52 121.742 153.52 123.073L153.52 128.295L152.176 128.295L152.176 121.868C152.176 121.102 152.164 120.638 151.172 120.713L151.147 119.809C152.453 119.583 153.382 119.721 153.432 121.014C153.897 119.985 154.864 119.621 155.982 119.621C156.71 119.621 157.375 119.834 157.953 120.248" fill="#00AEEF"/>
<path d="M58.4942 161.111C58.4942 174.218 47.8576 184.851 34.7471 184.851C21.6366 184.851 11 174.218 11 161.111C11 148.005 21.6366 137.372 34.7471 137.372C47.8576 137.372 58.4942 148.005 58.4942 161.111Z" fill="#00AEEF"/>
<path d="M46.1999 151.231L40.8502 156.567L32.0848 156.567L32.0848 146.122L31.4694 146.122C25.5798 146.122 20.7701 150.754 20.4436 156.567L20.4059 156.567L20.4059 160.722C20.4059 162.944 22.2142 164.752 24.437 164.752L28.5686 164.752L30.4774 166.648L28.2295 168.895L29.0834 169.761L31.3313 167.514L33.6168 169.799L34.4833 168.945L32.1978 166.66L34.1066 164.764L38.5019 164.764C40.7246 164.764 42.533 162.957 42.533 160.735L42.533 156.617L46.7022 152.462L49.0631 152.462L49.0631 151.244L46.1999 151.244L46.1999 151.231ZM30.8667 147.365L30.8667 156.579L21.6491 156.579C21.9505 151.646 25.9188 147.666 30.8667 147.365ZM31.3439 165.794L30.3015 164.752L32.3862 164.752L31.3439 165.794ZM41.3274 160.722C41.3274 162.279 40.0591 163.534 38.5145 163.534L24.4621 163.534C22.9175 163.534 21.6491 162.279 21.6491 160.722L21.6491 157.784L41.3274 157.784L41.3274 160.722ZM25.8686 168.782C23.8468 168.782 22.2142 170.414 22.2142 172.435C22.2142 174.456 23.8593 176.088 25.8686 176.088C27.8779 176.088 29.523 174.443 29.523 172.435C29.523 170.426 27.8904 168.782 25.8686 168.782ZM25.8686 174.87C24.5249 174.87 23.4198 173.778 23.4198 172.435C23.4198 171.092 24.5123 169.999 25.8686 169.999C27.2249 169.999 28.3048 171.092 28.3048 172.435C28.3048 173.778 27.2123 174.87 25.8686 174.87ZM36.8066 168.782C34.7847 168.782 33.1522 170.414 33.1522 172.435C33.1522 174.456 34.7973 176.088 36.8066 176.088C38.8158 176.088 40.4609 174.443 40.4609 172.435C40.4609 170.426 38.8158 168.782 36.8066 168.782ZM36.8066 174.87C35.4629 174.87 34.3703 173.778 34.3703 172.435C34.3703 171.092 35.4629 169.999 36.8066 169.999C38.1503 169.999 39.2428 171.092 39.2428 172.435C39.2428 173.778 38.1503 174.87 36.8066 174.87Z" fill="white"/>
<path d="M111.614 161.111C111.614 174.218 100.978 184.851 87.8672 184.851C74.7567 184.851 64.1201 174.218 64.1201 161.111C64.1201 148.005 74.7567 137.372 87.8672 137.372C100.978 137.372 111.614 148.005 111.614 161.111Z" fill="#00AEEF"/>
<path d="M99.3828 154.709L99.3828 156.604L76.3515 156.604L76.3515 154.797L71.4163 154.797L71.4163 174.531L76.3515 174.531L76.3515 171.895L99.3828 171.895L99.3828 174.444L104.318 174.444L104.318 154.709L99.3828 154.709ZM75.033 171.154L75.033 173.201L72.7348 173.201L72.7348 156.102L75.033 156.102L75.033 171.154ZM93.6941 157.835L95.8289 157.835L95.8289 168.029L93.6941 168.029L93.6941 157.835ZM79.7924 157.835L81.9398 157.835L81.9398 168.029L79.7924 168.029L79.7924 157.835ZM83.2458 157.835L85.3807 157.835L85.3807 168.029L83.2458 168.029L83.2458 157.835ZM86.6993 157.835L88.922 157.835L88.922 168.029L86.6993 168.029L86.6993 157.835ZM90.2281 157.835L92.3755 157.835L92.3755 168.029L90.2281 168.029L90.2281 157.835ZM76.3264 157.835L78.4613 157.835L78.4613 168.029L76.3264 168.029L76.3264 157.835ZM99.3577 170.577L76.3264 170.577L76.3264 169.347L99.3577 169.347L99.3577 170.577ZM99.3577 168.029L97.1349 168.029L97.1349 157.835L99.3577 157.835L99.3577 168.029ZM102.974 173.125L100.676 173.125L100.676 156.027L102.974 156.027L102.974 173.125ZM79.7799 155.362L78.4613 155.362L78.4613 148.319C78.4613 148.319 78.5617 147.29 79.152 146.31C79.7171 145.381 80.8222 144.264 82.9696 144.264C86.6616 144.264 87.1639 146.787 87.2267 147.34C89.0476 147.49 90.6425 148.269 91.396 149.411L90.3034 150.139C89.7006 149.235 88.2062 148.633 86.5737 148.633C84.9412 148.633 83.4342 149.235 82.844 150.139L81.7389 149.411C82.4924 148.269 84.0872 147.503 85.9081 147.34C85.8328 146.875 85.3807 145.582 82.9821 145.582C80.1943 145.582 79.8301 148.106 79.7924 148.407L79.7924 155.362L79.7799 155.362ZM83.384 152.7C83.384 153.315 82.8817 153.818 82.2538 153.818C81.6259 153.818 81.1361 153.315 81.1361 152.7C81.1361 152.085 81.6384 151.57 82.2538 151.57C82.8691 151.57 83.384 152.073 83.384 152.7ZM85.1295 150.453C85.7574 150.453 86.2598 150.955 86.2598 151.57C86.2598 152.186 85.7574 152.7 85.1295 152.7C84.5016 152.7 83.9993 152.198 83.9993 151.57C83.9993 150.943 84.5016 150.453 85.1295 150.453ZM88.0053 151.595C88.6332 151.595 89.123 152.098 89.123 152.725C89.123 153.353 88.6206 153.855 88.0053 153.855C87.39 153.855 86.8751 153.353 86.8751 152.725C86.8751 152.098 87.3774 151.595 88.0053 151.595ZM90.8811 150.453C91.4964 150.453 91.9987 150.955 91.9987 151.583C91.9987 152.211 91.4964 152.7 90.8811 152.7C90.2657 152.7 89.7509 152.198 89.7509 151.583C89.7509 150.968 90.2532 150.453 90.8811 150.453Z" fill="white"/>
<path d="M164.734 161.111C164.734 174.218 154.098 184.851 140.987 184.851C127.877 184.851 117.24 174.218 117.24 161.111C117.24 148.005 127.877 137.372 140.987 137.372C154.098 137.372 164.734 148.005 164.734 161.111Z" fill="#00AEEF"/>
<path d="M155.015 166.811L155.015 166.196C155.015 163.697 152.968 161.651 150.469 161.651L147.254 161.651C147.254 161.651 147.216 161.651 147.191 161.651L139.568 163.723L138.526 157.634C138.513 157.559 138.539 157.471 138.601 157.42C141.929 154.533 143.449 153.165 143.449 151.043C143.449 147.917 140.912 145.381 137.785 145.381L127.174 145.381C127.023 145.381 126.922 145.507 126.948 145.658L129.61 160.258L128.781 160.258C128.643 160.258 128.542 160.371 128.555 160.509L129.447 174.996C129.447 175.121 129.56 175.209 129.673 175.209L154.625 175.209C154.751 175.209 154.851 175.109 154.851 174.983L154.851 171.23C154.851 171.117 154.776 171.016 154.65 171.004C154.324 170.966 153.621 170.878 152.691 170.753C154.073 169.974 155.015 168.506 155.015 166.811ZM128.605 147.051C128.58 146.913 128.693 146.775 128.831 146.775L137.785 146.775C140.146 146.775 142.067 148.696 142.067 151.056C142.067 152.524 140.874 153.642 137.421 156.63L137.006 156.994L138.225 164.099L135.173 164.928C135.085 164.953 135.047 165.016 135.022 165.091C132.862 162.844 131.481 160.258 131.481 160.258L130.966 160.258C130.966 160.258 131.004 160.182 130.991 160.145L128.605 147.051ZM153.47 172.447L153.47 173.602C153.47 173.728 153.369 173.828 153.244 173.828L130.979 173.828C130.853 173.828 130.753 173.728 130.753 173.615L130.012 161.639L130.69 161.639C131.644 163.233 134.156 166.974 137.471 168.744C140.761 170.502 149.765 171.77 153.294 172.209C153.407 172.222 153.495 172.322 153.495 172.435M153.658 166.811C153.658 168.556 152.239 169.974 150.494 169.974L147.944 169.974C147.944 169.974 147.869 169.999 147.831 170.025C144.152 169.409 140.033 168.556 138.137 167.539C137.421 167.162 136.743 166.66 136.115 166.12L147.404 163.045C147.404 163.045 147.442 163.045 147.467 163.045L150.506 163.045C152.252 163.045 153.671 164.463 153.671 166.208L153.671 166.823L153.658 166.811ZM137.006 169.183L134.583 167.25C134.281 167.012 133.905 166.874 133.515 166.874C132.988 166.874 132.498 167.112 132.172 167.526L132.096 167.614C131.807 167.966 131.682 168.418 131.732 168.882C131.782 169.334 132.008 169.748 132.373 170.037L134.796 171.97C135.098 172.209 135.474 172.347 135.864 172.347C136.391 172.347 136.881 172.109 137.22 171.694L137.283 171.606C137.572 171.242 137.697 170.79 137.647 170.338C137.597 169.886 137.371 169.472 137.006 169.183ZM136.203 170.74L136.127 170.828C136.065 170.916 135.964 170.954 135.851 170.954C135.801 170.954 135.713 170.941 135.638 170.878L133.214 168.945C133.063 168.832 133.038 168.606 133.151 168.455L133.227 168.367C133.289 168.292 133.39 168.242 133.503 168.242C133.553 168.242 133.641 168.242 133.716 168.317L136.14 170.251C136.24 170.338 136.266 170.426 136.266 170.489C136.266 170.539 136.266 170.652 136.203 170.74Z" fill="white"/>
</g>
<defs>
<clipPath id="clip0_30_39">
<rect width="153.734" height="110.851" fill="white" transform="translate(11 74)"/>
</clipPath>
</defs>
</svg>
